<?xml version="1.0" encoding="iso-8859-1"?>
<!-- Generator: Adobe Illustrator 18.0.0, SVG Export Plug-In . SVG Version: 6.00 Build 0)  -->
<!DOCTYPE svg PUBLIC "-//W3C//DTD SVG 1.1//EN" "http://www.w3.org/Graphics/SVG/1.1/DTD/svg11.dtd">
<svg xmlns="http://www.w3.org/2000/svg" xmlns:xlink="http://www.w3.org/1999/xlink" version="1.1" id="Capa_1" x="0px" y="0px" viewBox="0 0 458.44 458.44" style="enable-background:new 0 0 458.44 458.44;" xml:space="preserve" width="512px" height="512px">
<g id="XMLID_855_">
	<path id="XMLID_877_" d="M439.268,154.386l-29.761-20.42l21.13-21.131c3.664-3.664,4.923-9.092,3.248-13.994   c-1.676-4.902-5.994-8.423-11.133-9.078l-58.005-7.388L332.803,8.21c-2.011-4.67-6.462-7.824-11.534-8.175   c-5.074-0.364-9.914,2.16-12.55,6.507l-15.118,24.938c17.083,49.291,20.56,101.044,6.136,150.281   c44.16-13.58,92.902-17.242,136.803-3.542c4.634-1.818,7.912-6.025,8.522-10.978C445.682,162.211,443.448,157.254,439.268,154.386z   " fill="#FFDA44"/>
	<path id="XMLID_1081_" d="M214.7,269.793c61.795-61.795,79.998-135.028,58.164-213.617c-4.473,1.521,12.216-14.201-255.613,253.627   c-5.3,5.299-5.302,13.902,0,19.204l13.606,13.606C91.287,348.105,158.226,326.267,214.7,269.793z" fill="#FFDA44"/>
	<path id="XMLID_1082_" d="M287.49,214.763l-0.142-0.363c-12.484,26.541-30.367,51.52-53.445,74.597   c-47.411,47.411-108.169,78.246-175.363,81.3l84.165,84.165c5.301,5.302,13.9,5.304,19.204,0   c268.016-268.015,251.402-250.94,252.872-253.819C372.9,191.772,327.717,199.092,287.49,214.763z" fill="#FFDA44"/>
</g>
<g>
</g>
<g>
</g>
<g>
</g>
<g>
</g>
<g>
</g>
<g>
</g>
<g>
</g>
<g>
</g>
<g>
</g>
<g>
</g>
<g>
</g>
<g>
</g>
<g>
</g>
<g>
</g>
<g>
</g>
</svg>
